# Blender 3.4.1
# www.blender.org
mtllib SphereSide.mtl
o SphereSide
v 0.577350 0.577350 -0.577350
v 0.384900 0.652630 -0.652630
v 0.192450 0.693889 -0.693889
v 0.000000 0.707107 -0.707107
v -0.192450 0.693889 -0.693889
v -0.384900 0.652630 -0.652630
v -0.577350 0.577350 -0.577350
v 0.652630 0.652630 -0.384900
v 0.435087 0.788289 -0.435087
v 0.217543 0.859467 -0.462592
v 0.000000 0.881917 -0.471405
v -0.217543 0.859467 -0.462592
v -0.435087 0.788289 -0.435087
v -0.652630 0.652630 -0.384900
v 0.693889 0.693889 -0.192450
v 0.462592 0.859467 -0.217543
v 0.231296 0.944989 -0.231296
v 0.000000 0.971825 -0.235702
v -0.231296 0.944989 -0.231296
v -0.462592 0.859467 -0.217543
v -0.693889 0.693889 -0.192450
v 0.707107 0.707107 0.000000
v 0.471405 0.881917 0.000000
v 0.235702 0.971825 0.000000
v 0.000000 1.000000 0.000000
v -0.235702 0.971825 0.000000
v -0.471405 0.881917 0.000000
v -0.707107 0.707107 0.000000
v 0.693889 0.693889 0.192450
v 0.462592 0.859467 0.217543
v 0.231296 0.944989 0.231296
v 0.000000 0.971825 0.235702
v -0.231296 0.944989 0.231296
v -0.462592 0.859467 0.217543
v -0.693889 0.693889 0.192450
v 0.652630 0.652630 0.384900
v 0.435087 0.788289 0.435087
v 0.217543 0.859467 0.462592
v 0.000000 0.881917 0.471405
v -0.217543 0.859467 0.462592
v -0.435087 0.788289 0.435087
v -0.652630 0.652630 0.384900
v 0.577350 0.577350 0.577350
v 0.384900 0.652630 0.652630
v 0.192450 0.693889 0.693889
v 0.000000 0.707107 0.707107
v -0.192450 0.693889 0.693889
v -0.384900 0.652630 0.652630
v -0.577350 0.577350 0.577350
vn 0.5117 0.6902 -0.5117
vn 0.3050 0.7663 -0.5655
vn 0.1014 0.8013 -0.5895
vn -0.1014 0.8013 -0.5895
vn -0.3050 0.7663 -0.5655
vn -0.5117 0.6902 -0.5117
vn 0.5655 0.7663 -0.3050
vn 0.3378 0.8785 -0.3378
vn 0.1124 0.9291 -0.3523
vn -0.1124 0.9291 -0.3523
vn -0.3378 0.8785 -0.3378
vn -0.5655 0.7663 -0.3050
vn 0.5895 0.8013 -0.1014
vn 0.3523 0.9291 -0.1124
vn 0.1173 0.9862 -0.1173
vn -0.1173 0.9862 -0.1173
vn -0.3523 0.9291 -0.1124
vn -0.5895 0.8013 -0.1014
vn 0.5895 0.8013 0.1014
vn 0.3523 0.9291 0.1124
vn 0.1173 0.9862 0.1173
vn -0.1173 0.9862 0.1173
vn -0.3523 0.9291 0.1124
vn -0.5895 0.8013 0.1014
vn 0.5655 0.7663 0.3050
vn 0.3378 0.8785 0.3378
vn 0.1124 0.9291 0.3523
vn -0.1124 0.9291 0.3523
vn -0.3378 0.8785 0.3378
vn -0.5655 0.7663 0.3050
vn 0.5117 0.6902 0.5117
vn 0.3050 0.7663 0.5655
vn 0.1014 0.8013 0.5895
vn -0.1014 0.8013 0.5895
vn -0.3050 0.7663 0.5655
vn -0.5117 0.6902 0.5117
s 0
f 1//1 2//1 9//1 8//1
f 2//2 3//2 10//2 9//2
f 3//3 4//3 11//3 10//3
f 4//4 5//4 12//4 11//4
f 5//5 6//5 13//5 12//5
f 6//6 7//6 14//6 13//6
f 8//7 9//7 16//7 15//7
f 9//8 10//8 17//8 16//8
f 10//9 11//9 18//9 17//9
f 11//10 12//10 19//10 18//10
f 12//11 13//11 20//11 19//11
f 13//12 14//12 21//12 20//12
f 15//13 16//13 23//13 22//13
f 16//14 17//14 24//14 23//14
f 17//15 18//15 25//15 24//15
f 18//16 19//16 26//16 25//16
f 19//17 20//17 27//17 26//17
f 20//18 21//18 28//18 27//18
f 22//19 23//19 30//19 29//19
f 23//20 24//20 31//20 30//20
f 24//21 25//21 32//21 31//21
f 25//22 26//22 33//22 32//22
f 26//23 27//23 34//23 33//23
f 27//24 28//24 35//24 34//24
f 29//25 30//25 37//25 36//25
f 30//26 31//26 38//26 37//26
f 31//27 32//27 39//27 38//27
f 32//28 33//28 40//28 39//28
f 33//29 34//29 41//29 40//29
f 34//30 35//30 42//30 41//30
f 36//31 37//31 44//31 43//31
f 37//32 38//32 45//32 44//32
f 38//33 39//33 46//33 45//33
f 39//34 40//34 47//34 46//34
f 40//35 41//35 48//35 47//35
f 41//36 42//36 49//36 48//36
